<svg xmlns="http://www.w3.org/2000/svg" viewBox="0 0 300 300">
  <!-- Defs for gradients, filters and animations -->
  <defs>
    <!-- Main gradients -->
    <linearGradient id="deepNavyGradient" x1="0%" y1="0%" x2="100%" y2="100%">
      <stop offset="0%" stop-color="#030a1c" />
      <stop offset="100%" stop-color="#0d1426" />
    </linearGradient>
    
    <linearGradient id="glowingBlueGradient" x1="0%" y1="0%" x2="100%" y2="100%">
      <stop offset="0%" stop-color="#2c95ff" />
      <stop offset="100%" stop-color="#1a56b0" />
    </linearGradient>
    
    <linearGradient id="vibrantOrangeGradient" x1="0%" y1="0%" x2="100%" y2="100%">
      <stop offset="0%" stop-color="#ff7e3d" />
      <stop offset="100%" stop-color="#ff4d00" />
    </linearGradient>
    
    <linearGradient id="creamAccentGradient" x1="0%" y1="0%" x2="100%" y2="100%">
      <stop offset="0%" stop-color="#fff1d6" />
      <stop offset="100%" stop-color="#ffe0a3" />
    </linearGradient>

    <linearGradient id="glassGradient" x1="0%" y1="0%" x2="100%" y2="100%">
      <stop offset="0%" stop-color="rgba(255,255,255,0.15)" />
      <stop offset="100%" stop-color="rgba(255,255,255,0.05)" />
    </linearGradient>
    
    <!-- Radial gradients for lighting effects -->
    <radialGradient id="faceGlow" cx="50%" cy="50%" r="50%" fx="50%" fy="50%">
      <stop offset="0%" stop-color="#2c95ff" stop-opacity="0.2" />
      <stop offset="100%" stop-color="#0d1426" stop-opacity="0" />
    </radialGradient>
    
    <radialGradient id="outerGlow" cx="50%" cy="50%" r="50%" fx="50%" fy="50%">
      <stop offset="0%" stop-color="#ff7e3d" stop-opacity="0.1" />
      <stop offset="100%" stop-color="#0d1426" stop-opacity="0" />
    </radialGradient>

    <!-- Filters -->
    <filter id="softGlow" x="-50%" y="-50%" width="200%" height="200%">
      <feGaussianBlur stdDeviation="3" result="blur" />
      <feComposite in="SourceGraphic" in2="blur" operator="over" />
    </filter>
    
    <filter id="neonGlow" x="-30%" y="-30%" width="160%" height="160%">
      <feGaussianBlur stdDeviation="2.5" result="blur" />
      <feComposite in="SourceGraphic" in2="blur" operator="over" />
    </filter>
    
    <filter id="innerShadow" x="-20%" y="-20%" width="140%" height="140%">
      <feGaussianBlur in="SourceAlpha" stdDeviation="3" result="blur"/>
      <feOffset in="blur" dx="0" dy="4" result="offsetBlur"/>
      <feComposite in="SourceGraphic" in2="offsetBlur" operator="over"/>
    </filter>
    
    <filter id="softBlur" x="-10%" y="-10%" width="120%" height="120%">
      <feGaussianBlur stdDeviation="1.5" />
    </filter>

    <!-- Animated elements -->
    <clipPath id="circleClip">
      <circle cx="150" cy="150" r="130" />
    </clipPath>
    
    <!-- Random wave animation that happens occasionally -->
    <animate 
      id="waveAnimation" 
      attributeName="opacity" 
      values="0;1;1;1;0" 
      dur="0.7s" 
      begin="10s;40s;90s;150s;210s;290s;350s;390s" 
      repeatCount="1" />
      
    <!-- Blinking animation -->
    <animate 
      id="blinkAnimation" 
      attributeName="ry" 
      values="8;1;8" 
      dur="0.3s" 
      begin="3s;7s;12s;18s;25s;34s;40s" 
      repeatCount="1" />
  </defs>
  
  <!-- Main background elements -->
  <circle cx="150" cy="150" r="140" fill="url(#deepNavyGradient)" />
  <circle cx="150" cy="150" r="135" fill="none" stroke="url(#vibrantOrangeGradient)" stroke-width="0.5" opacity="0.3" />
  
  <!-- Subtle background patterns -->
  <g opacity="0.05">
    <!-- Grid pattern -->
    <path d="M50,50 L250,50 M50,100 L250,100 M50,150 L250,150 M50,200 L250,200 M50,250 L250,250" stroke="#fff" stroke-width="0.5" />
    <path d="M50,50 L50,250 M100,50 L100,250 M150,50 L150,250 M200,50 L200,250 M250,50 L250,250" stroke="#fff" stroke-width="0.5" />
    
    <!-- Abstract circuit patterns -->
    <path d="M50,50 C100,80 200,70 250,100" stroke="#2c95ff" stroke-width="0.5" opacity="0.3" />
    <path d="M50,250 C100,220 200,230 250,200" stroke="#2c95ff" stroke-width="0.5" opacity="0.3" />
    <path d="M50,150 C100,180 200,120 250,150" stroke="#ff7e3d" stroke-width="0.5" opacity="0.3" />
  </g>
  
  <!-- Glowing background effects -->
  <circle cx="150" cy="150" r="120" fill="url(#faceGlow)" opacity="0.5" />
  <circle cx="150" cy="170" r="150" fill="url(#outerGlow)" opacity="0.3" />

  <!-- Main avatar container - futuristic glass effect -->
  <g transform="translate(150, 150)">
    <!-- Multi-layered background for depth -->
    <circle cx="0" cy="0" r="85" fill="rgba(13, 20, 38, 0.7)" stroke="rgba(44, 149, 255, 0.3)" stroke-width="2" />
    <circle cx="0" cy="0" r="80" fill="rgba(10, 17, 32, 0.6)" stroke="rgba(255, 126, 61, 0.2)" stroke-width="1" />
    
    <!-- Glowing accents -->
    <path d="M-60,-60 L-50,-70 L50,-70 L60,-60 L60,60 L50,70 L-50,70 L-60,60 Z" fill="none" stroke="url(#glowingBlueGradient)" stroke-width="0.5" opacity="0.6" />
    <path d="M-50,-50 L-40,-60 L40,-60 L50,-50 L50,50 L40,60 L-40,60 L-50,50 Z" fill="none" stroke="url(#vibrantOrangeGradient)" stroke-width="0.5" opacity="0.6" />
    
    <!-- Futuristic face design - modern and abstract -->
    <g>
      <!-- Glowing circle behind face -->
      <circle cx="0" cy="0" r="45" fill="rgba(44, 149, 255, 0.05)" />
      
      <!-- Abstract face shape with subtle gradient -->
      <circle cx="0" cy="0" r="40" fill="url(#glassGradient)" stroke="rgba(255, 255, 255, 0.3)" stroke-width="0.5" />
      
      <!-- Eyes - animated blinking -->
      <g>
        <!-- Left eye -->
        <ellipse cx="-15" cy="-10" rx="10" ry="8" fill="rgba(44, 149, 255, 0.2)" stroke="#2c95ff" stroke-width="1">
          <animate attributeName="ry" values="8;1;8" dur="0.3s" begin="3s;7s;12s;18s;25s;34s;40s;55s;73s;88s;100s;130s;180s;230s;290s;350s" repeatCount="1" />
        </ellipse>
        <circle cx="-15" cy="-10" r="4" fill="#2c95ff" />
        <circle cx="-13" cy="-12" r="1.5" fill="#fff" />
        
        <!-- Right eye -->
        <ellipse cx="15" cy="-10" rx="10" ry="8" fill="rgba(44, 149, 255, 0.2)" stroke="#2c95ff" stroke-width="1">
          <animate attributeName="ry" values="8;1;8" dur="0.3s" begin="3s;7s;12s;18s;25s;34s;40s;55s;73s;88s;100s;130s;180s;230s;290s;350s" repeatCount="1" />
        </ellipse>
        <circle cx="15" cy="-10" r="4" fill="#2c95ff" />
        <circle cx="17" cy="-12" r="1.5" fill="#fff" />
      </g>
      
      <!-- Mouth - subtle smile that occasionally animates -->
      <path d="M-20,15 Q0,30 20,15" fill="none" stroke="#2c95ff" stroke-width="2" stroke-linecap="round">
        <animate attributeName="d" values="M-20,15 Q0,30 20,15; M-20,20 Q0,40 20,20; M-20,15 Q0,30 20,15" dur="2s" begin="10s;40s;90s;150s;210s;290s;350s;390s" repeatCount="1" />
      </path>
      
      <!-- Abstract facial details -->
      <path d="M-30,-30 L-25,-25 M25,-25 L30,-30" stroke="#fff" stroke-width="0.5" opacity="0.5" />
      <path d="M-30,30 L-25,25 M25,25 L30,30" stroke="#fff" stroke-width="0.5" opacity="0.5" />
    </g>
    
    <!-- Waving hand that appears at random intervals -->
    <g transform="translate(50, 20)" opacity="0">
      <!-- Links animation to the random intervals defined above -->
      <animate 
        attributeName="opacity" 
        values="0;1;1;1;0" 
        dur="1.5s" 
        begin="10s;40s;90s;150s;210s;290s;350s;390s" 
        repeatCount="1" />
      
      <!-- Hand waving animation -->
      <animateTransform 
        attributeName="transform" 
        type="rotate" 
        values="0,0,0; -20,0,0; 0,0,0; -20,0,0; 0,0,0" 
        additive="sum"
        dur="1.5s" 
        begin="10s;40s;90s;150s;210s;290s;350s;390s" 
        repeatCount="1" />
        
      <!-- Hand design -->
      <path d="M0,0 C-5,-3 -5,-10 0,-15 L5,-15 C10,-10 10,-3 5,0 Z" fill="url(#glowingBlueGradient)" />
      <path d="M5,0 C10,-3 10,-10 15,-15 L20,-15 C25,-10 25,-3 20,0 Z" fill="url(#glowingBlueGradient)" />
      <path d="M-10,-10 C-15,-15 -10,-20 -5,-15 L0,-10 Z" fill="url(#glowingBlueGradient)" />
      <ellipse cx="7" cy="-7" rx="15" ry="12" fill="none" stroke="rgba(44, 149, 255, 0.3)" stroke-width="0.5" />
    </g>
  </g>
  
  <!-- Speech bubble with "Hi!" that appears with the waving hand -->
  <g transform="translate(190, 85)" opacity="0">
    <!-- Same animation timing as hand -->
    <animate 
      attributeName="opacity" 
      values="0;1;1;1;0" 
      dur="1.5s" 
      begin="10s;40s;90s;150s;210s;290s;350s;390s" 
      repeatCount="1" />
      
    <!-- Animated movement with hand -->
    <animateTransform 
      attributeName="transform" 
      type="translate" 
      values="190,85; 195,80; 190,85" 
      dur="1.5s" 
      begin="10s;40s;90s;150s;210s;290s;350s;390s" 
      repeatCount="1" />
    
    <!-- Modern speech bubble design -->
    <path d="M0,0 L-30,0 Q-40,0 -40,10 L-40,30 Q-40,40 -30,40 L-15,40 L0,55 L0,40 L0,40 Q10,40 10,30 L10,10 Q10,0 0,0 Z" 
          fill="url(#glassGradient)" 
          stroke="url(#vibrantOrangeGradient)" 
          stroke-width="1.5" />
    
    <!-- "Hi!" text with glow effect -->
    <text x="-15" y="28" font-family="Arial, sans-serif" font-size="20" font-weight="bold" fill="#fff" text-anchor="middle" filter="url(#softGlow)">Hi!</text>
  </g>
  
  <!-- Pulsing rings for technology feel -->
  <g>
    <circle cx="150" cy="150" r="100" fill="none" stroke="url(#glowingBlueGradient)" stroke-width="0.5" opacity="0.3">
      <animate attributeName="r" values="100;110;100" dur="10s" repeatCount="indefinite" />
      <animate attributeName="opacity" values="0.3;0.1;0.3" dur="10s" repeatCount="indefinite" />
    </circle>
    
    <circle cx="150" cy="150" r="115" fill="none" stroke="url(#vibrantOrangeGradient)" stroke-width="0.5" opacity="0.2">
      <animate attributeName="r" values="115;125;115" dur="15s" repeatCount="indefinite" />
      <animate attributeName="opacity" values="0.2;0.05;0.2" dur="15s" repeatCount="indefinite" />
    </circle>
  </g>
  
  <!-- Dynamic particles with random animations -->
  <g>
    <circle cx="100" cy="80" r="1" fill="#2c95ff">
      <animate attributeName="opacity" values="0.2;0.8;0.2" dur="5s" repeatCount="indefinite" />
      <animate attributeName="r" values="1;2;1" dur="5s" repeatCount="indefinite" />
    </circle>
    
    <circle cx="200" cy="80" r="1" fill="#ff7e3d">
      <animate attributeName="opacity" values="0.2;0.8;0.2" dur="7s" repeatCount="indefinite" />
      <animate attributeName="r" values="1;2;1" dur="7s" repeatCount="indefinite" />
    </circle>
    
    <circle cx="100" cy="220" r="1" fill="#fff1d6">
      <animate attributeName="opacity" values="0.2;0.8;0.2" dur="6s" repeatCount="indefinite" />
      <animate attributeName="r" values="1;2;1" dur="6s" repeatCount="indefinite" />
    </circle>
    
    <circle cx="200" cy="220" r="1" fill="#2c95ff">
      <animate attributeName="opacity" values="0.2;0.8;0.2" dur="8s" repeatCount="indefinite" />
      <animate attributeName="r" values="1;2;1" dur="8s" repeatCount="indefinite" />
    </circle>
    
    <circle cx="150" cy="70" r="1" fill="#fff1d6">
      <animate attributeName="opacity" values="0.2;0.8;0.2" dur="9s" repeatCount="indefinite" />
      <animate attributeName="r" values="1;2;1" dur="9s" repeatCount="indefinite" />
    </circle>
    
    <circle cx="150" cy="230" r="1" fill="#ff7e3d">
      <animate attributeName="opacity" values="0.2;0.8;0.2" dur="10s" repeatCount="indefinite" />
      <animate attributeName="r" values="1;2;1" dur="10s" repeatCount="indefinite" />
    </circle>
  </g>
  
  <!-- Elegant text label at bottom -->
  <g transform="translate(150, 235)">
    <text x="0" y="0" font-family="Arial, sans-serif" font-size="14" font-weight="bold" fill="url(#creamAccentGradient)" text-anchor="middle" filter="url(#softGlow)">AI ASSISTANT</text>
  </g>
</svg>